<?xml version="1.0" standalone="no"?>
<!DOCTYPE svg PUBLIC "-//W3C//DTD SVG 20010904//EN"
 "http://www.w3.org/TR/2001/REC-SVG-20010904/DTD/svg10.dtd">
<svg version="1.0" xmlns="http://www.w3.org/2000/svg"
 width="256.000000pt" height="256.000000pt" viewBox="0 0 256.000000 256.000000"
 preserveAspectRatio="xMidYMid meet">
<metadata>
Created by potrace 1.14, written by Peter Selinger 2001-2017
</metadata>
<g transform="translate(0.000000,256.000000) scale(0.100000,-0.100000)"
fill="#000000" stroke="none">
<path d="M19 2508 c30 -83 291 -801 298 -818 3 -8 7 -19 8 -25 2 -5 28 -77 58
-160 116 -314 348 -951 352 -965 5 -20 134 -379 146 -405 5 -11 18 -46 29 -78
l21 -57 341 0 c268 0 339 3 335 13 -2 6 -25 70 -51 142 -26 72 -51 139 -56
150 -5 11 -23 61 -40 110 -60 170 -92 260 -105 290 -7 17 -20 50 -28 75 -16
46 -36 104 -177 490 -45 124 -83 230 -85 235 -1 6 -5 17 -8 25 -10 22 -228
623 -231 635 -2 6 -8 21 -13 35 -6 14 -22 59 -37 100 -14 41 -41 116 -60 165
l-34 90 -341 3 -340 2 18 -52z"/>
<path d="M1802 2363 c-40 -109 -75 -205 -77 -213 -2 -8 -38 -107 -80 -220 -42
-113 -78 -214 -80 -225 -3 -11 -9 -29 -15 -40 -5 -11 -23 -58 -40 -104 l-30
-83 89 -247 c153 -420 251 -684 256 -689 3 -3 5 0 5 6 0 7 93 265 206 574 113
310 207 568 208 573 2 6 6 17 9 25 6 15 189 515 268 733 l38 107 -342 0 -343
0 -72 -197z"/>
</g>
</svg>
